<?xml version="1.0" standalone="no"?>
<!DOCTYPE svg PUBLIC "-//W3C//DTD SVG 20010904//EN"
 "http://www.w3.org/TR/2001/REC-SVG-20010904/DTD/svg10.dtd">
<svg version="1.0" xmlns="http://www.w3.org/2000/svg"
 width="1080.000000pt" height="1080.000000pt" viewBox="0 0 1080.000000 1080.000000"
 preserveAspectRatio="xMidYMid meet">

<g transform="translate(0.000000,1080.000000) scale(0.100000,-0.100000)"
fill="#000000" stroke="none">
<path d="M2910 9029 c-339 -29 -649 -233 -811 -533 -49 -91 -95 -222 -112
-319 -9 -56 -12 -689 -12 -2897 l0 -2825 31 -65 c39 -82 92 -135 171 -172 79
-38 179 -40 269 -7 56 21 89 51 719 680 l661 659 1964 0 c1162 0 2012 4 2080
10 127 10 257 43 360 91 231 108 426 315 519 554 69 176 71 199 71 816 0 520
-1 551 -20 600 -29 77 -69 129 -132 169 -105 69 -218 76 -333 21 -74 -35 -127
-87 -163 -160 l-27 -56 -5 -545 c-4 -432 -8 -552 -19 -580 -35 -88 -101 -158
-186 -201 l-50 -24 -2140 -5 -2140 -5 -55 -24 c-47 -21 -114 -83 -473 -440
l-417 -416 2 2370 3 2370 22 47 c39 84 121 160 207 192 22 7 398 12 1261 16
l1230 5 50 25 c123 60 199 176 199 305 0 39 -5 88 -12 111 -18 60 -67 129
-123 170 -101 74 -11 69 -1319 70 -646 1 -1218 -2 -1270 -7z"/>
<path d="M7355 9028 c-453 -30 -858 -285 -1089 -683 -152 -264 -214 -616 -161
-921 63 -357 287 -696 594 -898 113 -74 154 -96 259 -136 299 -116 640 -122
943 -19 99 33 272 125 362 192 166 122 312 293 406 476 199 388 204 833 12
1226 -246 505 -762 801 -1326 763z m242 -694 c240 -49 440 -234 515 -474 19
-62 23 -96 22 -200 -1 -155 -28 -250 -105 -364 -198 -297 -561 -398 -879 -244
-70 34 -101 57 -176 132 -73 74 -99 108 -133 176 -95 194 -95 416 0 610 34 69
60 102 133 176 75 75 107 99 178 133 140 68 292 87 445 55z"/>
</g>
</svg>
