<?xml version="1.0" standalone="no"?>
<!DOCTYPE svg PUBLIC "-//W3C//DTD SVG 20010904//EN"
 "http://www.w3.org/TR/2001/REC-SVG-20010904/DTD/svg10.dtd">
<svg version="1.0" xmlns="http://www.w3.org/2000/svg"
 width="1080.000000pt" height="1080.000000pt" viewBox="0 0 1080.000000 1080.000000"
 preserveAspectRatio="xMidYMid meet">

<g transform="translate(0.000000,1080.000000) scale(0.100000,-0.100000)"
fill="#000000" stroke="none">
<path d="M1790 10309 c-571 -64 -1050 -453 -1234 -1003 -20 -58 -44 -148 -54
-199 -16 -87 -17 -333 -17 -4162 0 -3969 0 -4071 19 -4128 92 -279 425 -417
691 -285 52 26 181 150 1005 974 l945 944 2915 0 c2867 0 2917 0 3033 20 534
90 972 468 1150 990 71 208 70 189 74 1055 4 872 5 868 -63 981 -54 90 -118
150 -212 196 -78 39 -88 42 -190 46 -117 5 -189 -12 -278 -64 -68 -40 -151
-136 -192 -221 l-37 -78 -5 -775 c-5 -768 -5 -775 -27 -833 -63 -168 -209
-296 -372 -327 -36 -7 -1056 -10 -3057 -10 -2187 0 -3017 -3 -3056 -11 -130
-28 -129 -27 -763 -660 -325 -324 -594 -589 -598 -589 -4 0 -7 1509 -7 3353 0
3665 -4 3425 57 3547 35 68 141 176 210 213 111 59 50 57 1897 57 1830 0 1742
-2 1854 52 56 27 152 115 190 176 56 88 75 163 70 284 -4 102 -7 112 -46 192
-68 136 -193 234 -340 265 -64 13 -3443 13 -3562 0z"/>
<path d="M8108 10304 c-933 -117 -1656 -882 -1717 -1816 -33 -506 123 -997
438 -1382 78 -94 248 -258 341 -327 265 -198 581 -328 909 -373 141 -20 412
-20 548 -1 482 68 922 312 1231 680 605 721 615 1773 25 2505 -78 96 -246 258
-346 333 -252 189 -573 326 -872 372 -154 23 -412 28 -557 9z m452 -991 c179
-36 346 -127 481 -262 173 -174 264 -364 289 -602 30 -290 -74 -579 -282 -788
-236 -237 -565 -337 -891 -270 -332 67 -612 306 -726 619 -47 130 -55 180 -55
340 0 223 41 366 153 536 166 250 419 408 716 445 78 10 220 2 315 -18z"/>
</g>
</svg>
